<mxfile host="app.diagrams.net" modified="2020-03-13T14:23:15.238Z" agent="Mozilla/5.0 (Windows NT 10.0; Win64; x64) AppleWebKit/537.36 (KHTML, like Gecko) Chrome/70.0.3538.102 Safari/537.36" etag="9kuztnA8ICXSdQQT4cYT" version="12.8.4" type="github">
  <diagram id="-Knro7iIvr_-B3o6s4ao" name="第 1 页">
    <mxGraphModel dx="1422" dy="704" grid="1" gridSize="10" guides="1" tooltips="1" connect="1" arrows="1" fold="1" page="1" pageScale="1" pageWidth="827" pageHeight="1169" math="0" shadow="0">
      <root>
        <mxCell id="0" />
        <mxCell id="1" parent="0" />
        <mxCell id="aUfQGK8bXhrhn-6a5ReO-54" value="" style="group" parent="1" vertex="1" connectable="0">
          <mxGeometry x="40" y="430" width="540" height="75" as="geometry" />
        </mxCell>
        <mxCell id="aUfQGK8bXhrhn-6a5ReO-42" value="&lt;font color=&quot;#ffffff&quot;&gt;&lt;span style=&quot;font-size: 18px&quot;&gt;&lt;br&gt;&lt;/span&gt;&lt;/font&gt;" style="rounded=1;whiteSpace=wrap;html=1;fillColor=#eeeeee;strokeColor=#36393d;" parent="aUfQGK8bXhrhn-6a5ReO-54" vertex="1">
          <mxGeometry width="540" height="75" as="geometry" />
        </mxCell>
        <mxCell id="aUfQGK8bXhrhn-6a5ReO-43" value="&lt;span style=&quot;text-align: left ; white-space: nowrap&quot;&gt;&lt;font color=&quot;#666666&quot; style=&quot;font-size: 14px&quot;&gt;战斗录像&lt;/font&gt;&lt;br&gt;&lt;/span&gt;" style="rounded=1;whiteSpace=wrap;html=1;" parent="aUfQGK8bXhrhn-6a5ReO-54" vertex="1">
          <mxGeometry x="144" y="18" width="120" height="40" as="geometry" />
        </mxCell>
        <mxCell id="aUfQGK8bXhrhn-6a5ReO-47" value="&lt;font style=&quot;font-size: 14px&quot;&gt;模块管理器&lt;/font&gt;" style="rounded=1;whiteSpace=wrap;html=1;fillColor=#647687;strokeColor=#314354;fontColor=#ffffff;" parent="aUfQGK8bXhrhn-6a5ReO-54" vertex="1">
          <mxGeometry x="16" y="18" width="120" height="40" as="geometry" />
        </mxCell>
        <mxCell id="aUfQGK8bXhrhn-6a5ReO-48" value="&lt;span style=&quot;text-align: left ; white-space: nowrap&quot;&gt;&lt;font color=&quot;#666666&quot;&gt;&lt;span style=&quot;font-size: 14px&quot;&gt;战斗背包&lt;/span&gt;&lt;/font&gt;&lt;br&gt;&lt;/span&gt;" style="rounded=1;whiteSpace=wrap;html=1;" parent="aUfQGK8bXhrhn-6a5ReO-54" vertex="1">
          <mxGeometry x="272" y="18" width="120" height="40" as="geometry" />
        </mxCell>
        <mxCell id="aUfQGK8bXhrhn-6a5ReO-49" value="&lt;span style=&quot;text-align: left ; white-space: nowrap&quot;&gt;&lt;font color=&quot;#666666&quot; style=&quot;font-size: 14px&quot;&gt;10+个业务模块&lt;/font&gt;&lt;br&gt;&lt;/span&gt;" style="rounded=1;whiteSpace=wrap;html=1;" parent="aUfQGK8bXhrhn-6a5ReO-54" vertex="1">
          <mxGeometry x="400" y="18" width="120" height="40" as="geometry" />
        </mxCell>
        <mxCell id="aUfQGK8bXhrhn-6a5ReO-55" value="" style="group" parent="1" vertex="1" connectable="0">
          <mxGeometry x="40" y="519" width="540" height="75" as="geometry" />
        </mxCell>
        <mxCell id="aUfQGK8bXhrhn-6a5ReO-20" value="&lt;font color=&quot;#ffffff&quot;&gt;&lt;span style=&quot;font-size: 18px&quot;&gt;&lt;br&gt;&lt;/span&gt;&lt;/font&gt;" style="rounded=1;whiteSpace=wrap;html=1;fillColor=#eeeeee;strokeColor=#36393d;" parent="aUfQGK8bXhrhn-6a5ReO-55" vertex="1">
          <mxGeometry width="540" height="75" as="geometry" />
        </mxCell>
        <mxCell id="aUfQGK8bXhrhn-6a5ReO-22" value="&lt;span style=&quot;text-align: left ; white-space: nowrap&quot;&gt;&lt;font color=&quot;#666666&quot; style=&quot;font-size: 14px&quot;&gt;60+个表演脚本&lt;/font&gt;&lt;br&gt;&lt;/span&gt;" style="rounded=1;whiteSpace=wrap;html=1;" parent="aUfQGK8bXhrhn-6a5ReO-55" vertex="1">
          <mxGeometry x="400" y="17.5" width="120" height="40" as="geometry" />
        </mxCell>
        <mxCell id="aUfQGK8bXhrhn-6a5ReO-23" value="&lt;span style=&quot;text-align: left ; white-space: nowrap&quot;&gt;&lt;font color=&quot;#ffffff&quot;&gt;&lt;font style=&quot;font-size: 14px&quot;&gt;Flux库组件&lt;/font&gt;&lt;br&gt;&lt;/font&gt;&lt;/span&gt;" style="rounded=1;whiteSpace=wrap;html=1;fillColor=#647687;strokeColor=#314354;fontColor=#ffffff;" parent="aUfQGK8bXhrhn-6a5ReO-55" vertex="1">
          <mxGeometry x="16" y="18" width="120" height="40" as="geometry" />
        </mxCell>
        <mxCell id="aUfQGK8bXhrhn-6a5ReO-24" value="&lt;span style=&quot;text-align: left ; white-space: nowrap&quot;&gt;&lt;font color=&quot;#ffffff&quot;&gt;&lt;font style=&quot;font-size: 14px&quot;&gt;DoTween库组件&lt;/font&gt;&lt;br&gt;&lt;/font&gt;&lt;/span&gt;" style="rounded=1;whiteSpace=wrap;html=1;fillColor=#647687;strokeColor=#314354;fontColor=#ffffff;" parent="aUfQGK8bXhrhn-6a5ReO-55" vertex="1">
          <mxGeometry x="144" y="18" width="120" height="40" as="geometry" />
        </mxCell>
        <mxCell id="aUfQGK8bXhrhn-6a5ReO-38" value="&lt;span style=&quot;text-align: left ; white-space: nowrap&quot;&gt;&lt;font color=&quot;#ffffff&quot;&gt;&lt;font style=&quot;font-size: 14px&quot;&gt;表演脚本基类&lt;/font&gt;&lt;br&gt;&lt;/font&gt;&lt;/span&gt;" style="rounded=1;whiteSpace=wrap;html=1;fillColor=#647687;strokeColor=#314354;fontColor=#ffffff;" parent="aUfQGK8bXhrhn-6a5ReO-55" vertex="1">
          <mxGeometry x="272" y="18" width="120" height="40" as="geometry" />
        </mxCell>
        <mxCell id="aUfQGK8bXhrhn-6a5ReO-56" value="" style="group" parent="1" vertex="1" connectable="0">
          <mxGeometry x="40" y="611" width="540" height="75" as="geometry" />
        </mxCell>
        <mxCell id="aUfQGK8bXhrhn-6a5ReO-9" value="&lt;font color=&quot;#ffffff&quot;&gt;&lt;span style=&quot;font-size: 18px&quot;&gt;&lt;br&gt;&lt;/span&gt;&lt;/font&gt;" style="rounded=1;whiteSpace=wrap;html=1;" parent="aUfQGK8bXhrhn-6a5ReO-56" vertex="1">
          <mxGeometry width="540" height="75" as="geometry" />
        </mxCell>
        <mxCell id="aUfQGK8bXhrhn-6a5ReO-15" value="&lt;font style=&quot;font-size: 14px&quot;&gt;&lt;span style=&quot;text-align: left ; white-space: nowrap&quot;&gt;&lt;font color=&quot;#ffffff&quot; style=&quot;font-size: 14px&quot;&gt;PlayMaker库&lt;/font&gt;&lt;/span&gt;&lt;span style=&quot;color: rgb(255 , 255 , 255) ; text-align: left ; white-space: nowrap&quot;&gt;组件&lt;/span&gt;&lt;/font&gt;&lt;span style=&quot;text-align: left ; white-space: nowrap&quot;&gt;&lt;font color=&quot;#ffffff&quot;&gt;&lt;br&gt;&lt;/font&gt;&lt;/span&gt;" style="rounded=1;whiteSpace=wrap;html=1;fillColor=#647687;strokeColor=#314354;fontColor=#ffffff;" parent="aUfQGK8bXhrhn-6a5ReO-56" vertex="1">
          <mxGeometry x="16" y="17.5" width="120" height="40" as="geometry" />
        </mxCell>
        <mxCell id="aUfQGK8bXhrhn-6a5ReO-16" value="&lt;span style=&quot;text-align: left ; white-space: nowrap&quot;&gt;&lt;font color=&quot;#666666&quot; style=&quot;font-size: 14px&quot;&gt;战斗初始化流程&lt;/font&gt;&lt;br&gt;&lt;/span&gt;" style="rounded=1;whiteSpace=wrap;html=1;fillColor=#eeeeee;strokeColor=#36393d;" parent="aUfQGK8bXhrhn-6a5ReO-56" vertex="1">
          <mxGeometry x="144" y="18" width="120" height="40" as="geometry" />
        </mxCell>
        <mxCell id="aUfQGK8bXhrhn-6a5ReO-61" value="&lt;span style=&quot;text-align: left ; white-space: nowrap&quot;&gt;&lt;font color=&quot;#666666&quot; style=&quot;font-size: 14px&quot;&gt;20+个流程脚本&lt;/font&gt;&lt;br&gt;&lt;/span&gt;" style="rounded=1;whiteSpace=wrap;html=1;fillColor=#eeeeee;strokeColor=#36393d;" parent="aUfQGK8bXhrhn-6a5ReO-56" vertex="1">
          <mxGeometry x="400" y="18" width="120" height="40" as="geometry" />
        </mxCell>
        <mxCell id="aUfQGK8bXhrhn-6a5ReO-62" value="&lt;span style=&quot;text-align: left ; white-space: nowrap&quot;&gt;&lt;font color=&quot;#666666&quot; style=&quot;font-size: 14px&quot;&gt;回合表演流程&lt;/font&gt;&lt;br&gt;&lt;/span&gt;" style="rounded=1;whiteSpace=wrap;html=1;fillColor=#eeeeee;strokeColor=#36393d;" parent="aUfQGK8bXhrhn-6a5ReO-56" vertex="1">
          <mxGeometry x="272" y="18" width="120" height="40" as="geometry" />
        </mxCell>
        <mxCell id="aUfQGK8bXhrhn-6a5ReO-57" value="" style="group" parent="1" vertex="1" connectable="0">
          <mxGeometry x="40" y="701" width="540" height="75" as="geometry" />
        </mxCell>
        <mxCell id="aUfQGK8bXhrhn-6a5ReO-28" value="&lt;font color=&quot;#ffffff&quot;&gt;&lt;span style=&quot;font-size: 18px&quot;&gt;&lt;br&gt;&lt;/span&gt;&lt;/font&gt;" style="rounded=1;whiteSpace=wrap;html=1;fillColor=#eeeeee;strokeColor=#36393d;" parent="aUfQGK8bXhrhn-6a5ReO-57" vertex="1">
          <mxGeometry width="540" height="75" as="geometry" />
        </mxCell>
        <mxCell id="aUfQGK8bXhrhn-6a5ReO-29" value="&lt;span style=&quot;text-align: left ; white-space: nowrap&quot;&gt;&lt;font color=&quot;#666666&quot; style=&quot;font-size: 14px&quot;&gt;业务网络层&lt;/font&gt;&lt;br&gt;&lt;/span&gt;" style="rounded=1;whiteSpace=wrap;html=1;" parent="aUfQGK8bXhrhn-6a5ReO-57" vertex="1">
          <mxGeometry x="272" y="17.5" width="120" height="40" as="geometry" />
        </mxCell>
        <mxCell id="aUfQGK8bXhrhn-6a5ReO-30" value="&lt;span style=&quot;text-align: left ; white-space: nowrap&quot;&gt;&lt;font color=&quot;#ffffff&quot;&gt;&lt;font style=&quot;font-size: 14px&quot;&gt;网络底层&lt;/font&gt;&lt;br&gt;&lt;/font&gt;&lt;/span&gt;" style="rounded=1;whiteSpace=wrap;html=1;fillColor=#647687;strokeColor=#314354;fontColor=#ffffff;" parent="aUfQGK8bXhrhn-6a5ReO-57" vertex="1">
          <mxGeometry x="16" y="18" width="120" height="40" as="geometry" />
        </mxCell>
        <mxCell id="aUfQGK8bXhrhn-6a5ReO-36" value="&lt;span style=&quot;text-align: left ; white-space: nowrap&quot;&gt;&lt;font color=&quot;#666666&quot; style=&quot;font-size: 14px&quot;&gt;战斗网络层&lt;/font&gt;&lt;br&gt;&lt;/span&gt;" style="rounded=1;whiteSpace=wrap;html=1;" parent="aUfQGK8bXhrhn-6a5ReO-57" vertex="1">
          <mxGeometry x="400" y="18" width="120" height="40" as="geometry" />
        </mxCell>
        <mxCell id="aUfQGK8bXhrhn-6a5ReO-50" value="&lt;span style=&quot;text-align: left ; white-space: nowrap&quot;&gt;&lt;font color=&quot;#666666&quot; style=&quot;font-size: 14px&quot;&gt;protobuf库组件&lt;/font&gt;&lt;br&gt;&lt;/span&gt;" style="rounded=1;whiteSpace=wrap;html=1;" parent="aUfQGK8bXhrhn-6a5ReO-57" vertex="1">
          <mxGeometry x="144" y="18" width="120" height="40" as="geometry" />
        </mxCell>
        <mxCell id="aUfQGK8bXhrhn-6a5ReO-58" value="" style="group" parent="1" vertex="1" connectable="0">
          <mxGeometry x="40" y="793" width="540" height="75" as="geometry" />
        </mxCell>
        <mxCell id="aUfQGK8bXhrhn-6a5ReO-25" value="&lt;font color=&quot;#ffffff&quot;&gt;&lt;span style=&quot;font-size: 18px&quot;&gt;&lt;br&gt;&lt;/span&gt;&lt;/font&gt;" style="rounded=1;whiteSpace=wrap;html=1;" parent="aUfQGK8bXhrhn-6a5ReO-58" vertex="1">
          <mxGeometry width="540" height="75" as="geometry" />
        </mxCell>
        <mxCell id="aUfQGK8bXhrhn-6a5ReO-26" value="&lt;span style=&quot;text-align: left ; white-space: nowrap&quot;&gt;&lt;font color=&quot;#ffffff&quot;&gt;&lt;font style=&quot;font-size: 14px&quot;&gt;底层加载器&lt;/font&gt;&lt;br&gt;&lt;/font&gt;&lt;/span&gt;" style="rounded=1;whiteSpace=wrap;html=1;fillColor=#647687;strokeColor=#314354;fontColor=#ffffff;" parent="aUfQGK8bXhrhn-6a5ReO-58" vertex="1">
          <mxGeometry x="16" y="17.5" width="120" height="40" as="geometry" />
        </mxCell>
        <mxCell id="aUfQGK8bXhrhn-6a5ReO-27" value="&lt;span style=&quot;text-align: left ; white-space: nowrap&quot;&gt;&lt;font color=&quot;#666666&quot; style=&quot;font-size: 14px&quot;&gt;细分资源管理器&lt;/font&gt;&lt;br&gt;&lt;/span&gt;" style="rounded=1;whiteSpace=wrap;html=1;fillColor=#eeeeee;strokeColor=#36393d;" parent="aUfQGK8bXhrhn-6a5ReO-58" vertex="1">
          <mxGeometry x="400" y="18" width="120" height="40" as="geometry" />
        </mxCell>
        <mxCell id="aUfQGK8bXhrhn-6a5ReO-34" value="&lt;font color=&quot;#666666&quot; style=&quot;font-size: 14px&quot;&gt;回合资源加载器&lt;/font&gt;" style="rounded=1;whiteSpace=wrap;html=1;fillColor=#eeeeee;strokeColor=#36393d;" parent="aUfQGK8bXhrhn-6a5ReO-58" vertex="1">
          <mxGeometry x="272" y="18" width="120" height="40" as="geometry" />
        </mxCell>
        <mxCell id="aUfQGK8bXhrhn-6a5ReO-35" value="&lt;span style=&quot;text-align: left ; white-space: nowrap&quot;&gt;&lt;font color=&quot;#ffffff&quot;&gt;&lt;font style=&quot;font-size: 14px&quot;&gt;资源缓存池&lt;/font&gt;&lt;br&gt;&lt;/font&gt;&lt;/span&gt;" style="rounded=1;whiteSpace=wrap;html=1;fillColor=#647687;strokeColor=#314354;fontColor=#ffffff;" parent="aUfQGK8bXhrhn-6a5ReO-58" vertex="1">
          <mxGeometry x="144" y="18" width="120" height="40" as="geometry" />
        </mxCell>
        <mxCell id="aUfQGK8bXhrhn-6a5ReO-60" value="&lt;font style=&quot;font-size: 18px&quot; color=&quot;#666666&quot;&gt;技能表演强依赖Flux库组件&lt;/font&gt;" style="shape=callout;whiteSpace=wrap;html=1;perimeter=calloutPerimeter;comic=1;fillColor=none;position2=0.06;size=19;position=0.2;shadow=0;" parent="1" vertex="1">
          <mxGeometry x="590" y="500" width="290" height="60" as="geometry" />
        </mxCell>
        <mxCell id="aUfQGK8bXhrhn-6a5ReO-63" value="&lt;font style=&quot;font-size: 18px&quot; color=&quot;#666666&quot;&gt;流程控制强依赖PlayMaker库组件&lt;/font&gt;" style="shape=callout;whiteSpace=wrap;html=1;perimeter=calloutPerimeter;comic=1;fillColor=none;position2=0.06;size=19;position=0.2;shadow=0;" parent="1" vertex="1">
          <mxGeometry x="590" y="600" width="290" height="60" as="geometry" />
        </mxCell>
      </root>
    </mxGraphModel>
  </diagram>
</mxfile>
